<svg xmlns="http://www.w3.org/2000/svg" viewBox="0 0 96 96" role="img" aria-label="Not found">
  <defs>
    <linearGradient id="glow" x1="0%" x2="100%" y1="0%" y2="100%">
      <stop offset="0%" stop-color="#e5dbff" />
      <stop offset="100%" stop-color="#e7f5ff" />
    </linearGradient>
    <linearGradient id="face" x1="0%" x2="100%" y1="0%" y2="100%">
      <stop offset="0%" stop-color="#fffef5" />
      <stop offset="100%" stop-color="#f8fff8" />
    </linearGradient>
  </defs>
  <circle cx="48" cy="48" r="34" fill="url(#glow)" />
  <circle cx="48" cy="48" r="23" fill="url(#face)" stroke="#5c7cfa" stroke-width="3" />
  <circle cx="39.5" cy="44" r="2.7" fill="#1a1a2e" />
  <circle cx="56.5" cy="44" r="2.7" fill="#1a1a2e" />
  <path d="M39 60c2.2-3 5.5-4.5 9-4.5s6.8 1.5 9 4.5" fill="none" stroke="#1a1a2e" stroke-linecap="round" stroke-width="3.4" />
  <circle cx="33.5" cy="52" r="3" fill="#ffa8a8" opacity="0.7" />
  <circle cx="62.5" cy="52" r="3" fill="#ffa8a8" opacity="0.7" />
  <path d="M27.5 24c0-2.2 1.8-4 4-4s4 1.8 4 4c0 1.7-1.3 2.5-2.3 3.3-0.9 0.7-1.2 1.4-1.2 2.4" fill="none" stroke="#7048e8" stroke-linecap="round" stroke-linejoin="round" stroke-width="3.2" />
  <circle cx="32" cy="33" r="1.6" fill="#7048e8" />
  <path d="M24 68h8M28 64v8M67 25h6M70 22v6M70 69h8M74 65v8" fill="none" stroke="#7048e8" stroke-linecap="round" stroke-width="3.5" />
</svg>
